<svg width="48" height="49" viewBox="0 0 48 49" fill="none" xmlns="http://www.w3.org/2000/svg">
<path fill-rule="evenodd" clip-rule="evenodd" d="M23.9993 5.41492C17.3763 5.41492 11.9993 10.7919 11.9993 17.4149C11.9993 24.0379 17.3763 29.4149 23.9993 29.4149C30.6223 29.4149 35.9993 24.0379 35.9993 17.4149C35.9993 10.7919 30.6223 5.41492 23.9993 5.41492ZM23.9993 7.41492C29.5183 7.41492 33.9993 11.8959 33.9993 17.4149C33.9993 22.9339 29.5183 27.4149 23.9993 27.4149C18.4803 27.4149 13.9993 22.9339 13.9993 17.4149C13.9993 11.8959 18.4803 7.41492 23.9993 7.41492Z" fill="black"/>
<path fill-rule="evenodd" clip-rule="evenodd" d="M23.9993 5.41492C17.3763 5.41492 11.9993 10.7919 11.9993 17.4149C11.9993 24.0379 17.3763 29.4149 23.9993 29.4149C30.6223 29.4149 35.9993 24.0379 35.9993 17.4149C35.9993 10.7919 30.6223 5.41492 23.9993 5.41492ZM23.9993 7.41492C29.5183 7.41492 33.9993 11.8959 33.9993 17.4149C33.9993 22.9339 29.5183 27.4149 23.9993 27.4149C18.4803 27.4149 13.9993 22.9339 13.9993 17.4149C13.9993 11.8959 18.4803 7.41492 23.9993 7.41492Z" fill="url(#paint0_linear_204_882)"/>
<path fill-rule="evenodd" clip-rule="evenodd" d="M23.9993 1.41492C15.1683 1.41492 7.99927 8.58392 7.99927 17.4149C7.99927 26.2459 15.1683 33.4149 23.9993 33.4149C32.8303 33.4149 39.9993 26.2459 39.9993 17.4149C39.9993 8.58392 32.8303 1.41492 23.9993 1.41492ZM23.9993 3.41492C31.7263 3.41492 37.9993 9.68792 37.9993 17.4149C37.9993 25.1419 31.7263 31.4149 23.9993 31.4149C16.2723 31.4149 9.99927 25.1419 9.99927 17.4149C9.99927 9.68792 16.2723 3.41492 23.9993 3.41492Z" fill="black"/>
<path fill-rule="evenodd" clip-rule="evenodd" d="M23.9993 1.41492C15.1683 1.41492 7.99927 8.58392 7.99927 17.4149C7.99927 26.2459 15.1683 33.4149 23.9993 33.4149C32.8303 33.4149 39.9993 26.2459 39.9993 17.4149C39.9993 8.58392 32.8303 1.41492 23.9993 1.41492ZM23.9993 3.41492C31.7263 3.41492 37.9993 9.68792 37.9993 17.4149C37.9993 25.1419 31.7263 31.4149 23.9993 31.4149C16.2723 31.4149 9.99927 25.1419 9.99927 17.4149C9.99927 9.68792 16.2723 3.41492 23.9993 3.41492Z" fill="url(#paint1_linear_204_882)"/>
<path fill-rule="evenodd" clip-rule="evenodd" d="M23.0063 12.4149H22.9993C21.3433 12.4149 19.9993 13.7589 19.9993 15.4149C19.9993 17.0709 21.3433 18.4149 22.9993 18.4149H24.9993C25.5513 18.4149 25.9993 18.8629 25.9993 19.4149C25.9993 19.9669 25.5513 20.4149 24.9993 20.4149H21.9993C21.4473 20.4149 20.9993 20.8629 20.9993 21.4149C20.9993 21.9669 21.4473 22.4149 21.9993 22.4149H23.0053V23.4149C23.0053 23.9669 23.4533 24.4149 24.0053 24.4149C24.5573 24.4149 25.0053 23.9669 25.0053 23.4149V22.4149C26.6583 22.4119 27.9993 21.0689 27.9993 19.4149C27.9993 17.7589 26.6553 16.4149 24.9993 16.4149H22.9993C22.4473 16.4149 21.9993 15.9669 21.9993 15.4149C21.9993 14.8629 22.4473 14.4149 22.9993 14.4149H25.9993C26.5513 14.4149 26.9993 13.9669 26.9993 13.4149C26.9993 12.8629 26.5513 12.4149 25.9993 12.4149H25.0063V11.4149C25.0063 10.8629 24.5583 10.4149 24.0063 10.4149C23.4543 10.4149 23.0063 10.8629 23.0063 11.4149V12.4149Z" fill="black"/>
<path fill-rule="evenodd" clip-rule="evenodd" d="M23.0063 12.4149H22.9993C21.3433 12.4149 19.9993 13.7589 19.9993 15.4149C19.9993 17.0709 21.3433 18.4149 22.9993 18.4149H24.9993C25.5513 18.4149 25.9993 18.8629 25.9993 19.4149C25.9993 19.9669 25.5513 20.4149 24.9993 20.4149H21.9993C21.4473 20.4149 20.9993 20.8629 20.9993 21.4149C20.9993 21.9669 21.4473 22.4149 21.9993 22.4149H23.0053V23.4149C23.0053 23.9669 23.4533 24.4149 24.0053 24.4149C24.5573 24.4149 25.0053 23.9669 25.0053 23.4149V22.4149C26.6583 22.4119 27.9993 21.0689 27.9993 19.4149C27.9993 17.7589 26.6553 16.4149 24.9993 16.4149H22.9993C22.4473 16.4149 21.9993 15.9669 21.9993 15.4149C21.9993 14.8629 22.4473 14.4149 22.9993 14.4149H25.9993C26.5513 14.4149 26.9993 13.9669 26.9993 13.4149C26.9993 12.8629 26.5513 12.4149 25.9993 12.4149H25.0063V11.4149C25.0063 10.8629 24.5583 10.4149 24.0063 10.4149C23.4543 10.4149 23.0063 10.8629 23.0063 11.4149V12.4149Z" fill="url(#paint2_linear_204_882)"/>
<path fill-rule="evenodd" clip-rule="evenodd" d="M10.9993 40.5009L8.70626 38.2079C8.31626 37.8179 7.68226 37.8179 7.29226 38.2079C6.90226 38.5979 6.90226 39.2319 7.29226 39.6219C7.29226 39.6219 8.72726 41.0569 9.87826 42.2079C10.4403 42.7699 11.2033 43.0869 11.9993 43.0869C12.7953 43.0869 13.5583 42.7699 14.1203 42.2079C15.2713 41.0569 16.7063 39.6219 16.7063 39.6219C17.0963 39.2319 17.0963 38.5979 16.7063 38.2079C16.3163 37.8179 15.6823 37.8179 15.2923 38.2079L12.9993 40.5009V32.4149C12.9993 31.8629 12.5513 31.4149 11.9993 31.4149C11.4473 31.4149 10.9993 31.8629 10.9993 32.4149V40.5009Z" fill="black"/>
<path fill-rule="evenodd" clip-rule="evenodd" d="M10.9993 40.5009L8.70626 38.2079C8.31626 37.8179 7.68226 37.8179 7.29226 38.2079C6.90226 38.5979 6.90226 39.2319 7.29226 39.6219C7.29226 39.6219 8.72726 41.0569 9.87826 42.2079C10.4403 42.7699 11.2033 43.0869 11.9993 43.0869C12.7953 43.0869 13.5583 42.7699 14.1203 42.2079C15.2713 41.0569 16.7063 39.6219 16.7063 39.6219C17.0963 39.2319 17.0963 38.5979 16.7063 38.2079C16.3163 37.8179 15.6823 37.8179 15.2923 38.2079L12.9993 40.5009V32.4149C12.9993 31.8629 12.5513 31.4149 11.9993 31.4149C11.4473 31.4149 10.9993 31.8629 10.9993 32.4149V40.5009Z" fill="url(#paint3_linear_204_882)"/>
<path fill-rule="evenodd" clip-rule="evenodd" d="M34.9993 40.5009L32.7063 38.2079C32.3163 37.8179 31.6823 37.8179 31.2923 38.2079C30.9023 38.5979 30.9023 39.2319 31.2923 39.6219C31.2923 39.6219 32.7273 41.0569 33.8783 42.2079C34.4403 42.7699 35.2033 43.0869 35.9993 43.0869C36.7953 43.0869 37.5583 42.7699 38.1203 42.2079C39.2713 41.0569 40.7063 39.6219 40.7063 39.6219C41.0963 39.2319 41.0963 38.5979 40.7063 38.2079C40.3163 37.8179 39.6823 37.8179 39.2923 38.2079L36.9993 40.5009V32.4149C36.9993 31.8629 36.5513 31.4149 35.9993 31.4149C35.4473 31.4149 34.9993 31.8629 34.9993 32.4149V40.5009Z" fill="black"/>
<path fill-rule="evenodd" clip-rule="evenodd" d="M34.9993 40.5009L32.7063 38.2079C32.3163 37.8179 31.6823 37.8179 31.2923 38.2079C30.9023 38.5979 30.9023 39.2319 31.2923 39.6219C31.2923 39.6219 32.7273 41.0569 33.8783 42.2079C34.4403 42.7699 35.2033 43.0869 35.9993 43.0869C36.7953 43.0869 37.5583 42.7699 38.1203 42.2079C39.2713 41.0569 40.7063 39.6219 40.7063 39.6219C41.0963 39.2319 41.0963 38.5979 40.7063 38.2079C40.3163 37.8179 39.6823 37.8179 39.2923 38.2079L36.9993 40.5009V32.4149C36.9993 31.8629 36.5513 31.4149 35.9993 31.4149C35.4473 31.4149 34.9993 31.8629 34.9993 32.4149V40.5009Z" fill="url(#paint4_linear_204_882)"/>
<path fill-rule="evenodd" clip-rule="evenodd" d="M22.9993 44.5009L20.7063 42.2079C20.3163 41.8179 19.6823 41.8179 19.2923 42.2079C18.9023 42.5979 18.9023 43.2319 19.2923 43.6219C19.2923 43.6219 20.7273 45.0569 21.8783 46.2079C22.4403 46.7699 23.2033 47.0869 23.9993 47.0869C24.7953 47.0869 25.5583 46.7699 26.1203 46.2079C27.2713 45.0569 28.7063 43.6219 28.7063 43.6219C29.0963 43.2319 29.0963 42.5979 28.7063 42.2079C28.3163 41.8179 27.6823 41.8179 27.2923 42.2079L24.9993 44.5009V36.4149C24.9993 35.8629 24.5513 35.4149 23.9993 35.4149C23.4473 35.4149 22.9993 35.8629 22.9993 36.4149V44.5009Z" fill="black"/>
<path fill-rule="evenodd" clip-rule="evenodd" d="M22.9993 44.5009L20.7063 42.2079C20.3163 41.8179 19.6823 41.8179 19.2923 42.2079C18.9023 42.5979 18.9023 43.2319 19.2923 43.6219C19.2923 43.6219 20.7273 45.0569 21.8783 46.2079C22.4403 46.7699 23.2033 47.0869 23.9993 47.0869C24.7953 47.0869 25.5583 46.7699 26.1203 46.2079C27.2713 45.0569 28.7063 43.6219 28.7063 43.6219C29.0963 43.2319 29.0963 42.5979 28.7063 42.2079C28.3163 41.8179 27.6823 41.8179 27.2923 42.2079L24.9993 44.5009V36.4149C24.9993 35.8629 24.5513 35.4149 23.9993 35.4149C23.4473 35.4149 22.9993 35.8629 22.9993 36.4149V44.5009Z" fill="url(#paint5_linear_204_882)"/>
<defs>
<linearGradient id="paint0_linear_204_882" x1="14.0191" y1="29.4149" x2="39.7416" y2="24.3241" gradientUnits="userSpaceOnUse">
<stop stop-color="#0158F7"/>
<stop offset="1" stop-color="#7839EE"/>
</linearGradient>
<linearGradient id="paint1_linear_204_882" x1="10.6923" y1="33.4149" x2="44.9891" y2="26.6272" gradientUnits="userSpaceOnUse">
<stop stop-color="#0158F7"/>
<stop offset="1" stop-color="#7839EE"/>
</linearGradient>
<linearGradient id="paint2_linear_204_882" x1="20.6725" y1="24.4149" x2="29.47" y2="23.42" gradientUnits="userSpaceOnUse">
<stop stop-color="#0158F7"/>
<stop offset="1" stop-color="#7839EE"/>
</linearGradient>
<linearGradient id="paint3_linear_204_882" x1="7.84126" y1="43.0869" x2="18.6665" y2="41.2516" gradientUnits="userSpaceOnUse">
<stop stop-color="#0158F7"/>
<stop offset="1" stop-color="#7839EE"/>
</linearGradient>
<linearGradient id="paint4_linear_204_882" x1="31.8413" y1="43.0869" x2="42.6665" y2="41.2515" gradientUnits="userSpaceOnUse">
<stop stop-color="#0158F7"/>
<stop offset="1" stop-color="#7839EE"/>
</linearGradient>
<linearGradient id="paint5_linear_204_882" x1="19.8413" y1="47.0869" x2="30.6665" y2="45.2515" gradientUnits="userSpaceOnUse">
<stop stop-color="#0158F7"/>
<stop offset="1" stop-color="#7839EE"/>
</linearGradient>
</defs>
</svg>
